<svg width="2147" height="1142" viewBox="0 0 2147 1142" fill="none" xmlns="http://www.w3.org/2000/svg">
<g filter="url(#filter0_f_268_7)">
<path d="M511.816 846H446.484L387.012 579.105H382.324V846H325.195V279.105H382.91L382.324 529.887H387.012L444.727 279.105H505.078L437.988 551.859L511.816 846ZM685.957 846L676.582 706.84L616.523 706.254L606.27 846H547.383L602.754 279.105H691.523L746.016 846H685.957ZM620.039 656.449H672.773L656.66 427.934L648.75 338.285H644.062L636.152 427.934L620.039 656.449ZM978.75 846H921.621L895.84 623.93H861.27V846H804.141V279.105H891.152C916.348 279.105 935.977 286.234 950.039 300.492C964.297 314.555 971.426 334.77 971.426 361.137V537.504C971.426 564.652 963.223 586.039 946.816 601.664L978.75 846ZM861.855 574.711H882.07C902.773 574.711 913.223 562.699 913.418 538.676V363.48C913.418 340.629 902.969 329.301 882.07 329.496H861.855V574.711ZM1222.62 846H1165.49L1139.71 623.93H1105.14V846H1048.01V279.105H1135.02C1160.21 279.105 1179.84 286.234 1193.91 300.492C1208.16 314.555 1215.29 334.77 1215.29 361.137V537.504C1215.29 564.652 1207.09 586.039 1190.68 601.664L1222.62 846ZM1105.72 574.711H1125.94C1146.64 574.711 1157.09 562.699 1157.29 538.676V363.48C1157.29 340.629 1146.84 329.301 1125.94 329.496H1105.72V574.711ZM1291.88 279.105H1349V846H1291.88V279.105ZM1447.85 298.734C1462.5 283.109 1483.4 275.297 1510.55 275.297C1537.89 275.297 1558.79 283.109 1573.24 298.734C1587.89 314.359 1595.21 336.137 1595.21 364.066V759.574C1595.21 788.285 1587.89 810.453 1573.24 826.078C1558.79 841.703 1537.7 849.516 1509.96 849.516C1482.81 849.516 1462.01 841.801 1447.56 826.371C1433.3 810.746 1426.17 788.48 1426.17 759.574V364.066C1426.17 336.137 1433.4 314.359 1447.85 298.734ZM1537.21 766.312V358.207C1537.21 348.637 1534.86 340.824 1530.18 334.77C1525.68 328.715 1519.43 325.688 1511.43 325.688C1503.03 325.688 1496.39 328.715 1491.5 334.77C1486.62 340.824 1484.18 348.637 1484.18 358.207V766.312C1484.18 776.273 1486.62 784.281 1491.5 790.336C1496.39 796.195 1502.83 799.125 1510.84 799.125C1519.24 799.125 1525.68 796.293 1530.18 790.629C1534.86 784.77 1537.21 776.664 1537.21 766.312ZM1791.91 618.07L1787.52 436.723V279.105H1840.84V846H1784.59L1725.12 478.324H1722.19L1726.29 650.297V846H1672.97V279.105H1733.03L1788.11 618.07H1791.91Z" fill="#BC02BC"/>
</g>
<g filter="url(#filter1_f_268_7)">
<path d="M469.816 914.183H404.484L345.012 647.288H340.324V914.183H283.195V347.288H340.91L340.324 598.069H345.012L402.727 347.288H463.078L395.988 620.042L469.816 914.183ZM643.957 914.183L634.582 775.022L574.523 774.437L564.27 914.183H505.383L560.754 347.288H649.523L704.016 914.183H643.957ZM578.039 724.632H630.773L614.66 496.116L606.75 406.468H602.062L594.152 496.116L578.039 724.632ZM936.75 914.183H879.621L853.84 692.112H819.27V914.183H762.141V347.288H849.152C874.348 347.288 893.977 354.417 908.039 368.675C922.297 382.737 929.426 402.952 929.426 429.319V605.687C929.426 632.835 921.223 654.222 904.816 669.847L936.75 914.183ZM819.855 642.894H840.07C860.773 642.894 871.223 630.882 871.418 606.858V431.663C871.418 408.812 860.969 397.483 840.07 397.679H819.855V642.894ZM1180.62 914.183H1123.49L1097.71 692.112H1063.14V914.183H1006.01V347.288H1093.02C1118.21 347.288 1137.84 354.417 1151.91 368.675C1166.16 382.737 1173.29 402.952 1173.29 429.319V605.687C1173.29 632.835 1165.09 654.222 1148.68 669.847L1180.62 914.183ZM1063.72 642.894H1083.94C1104.64 642.894 1115.09 630.882 1115.29 606.858V431.663C1115.29 408.812 1104.84 397.483 1083.94 397.679H1063.72V642.894ZM1249.88 347.288H1307V914.183H1249.88V347.288ZM1405.85 366.917C1420.5 351.292 1441.4 343.479 1468.55 343.479C1495.89 343.479 1516.79 351.292 1531.24 366.917C1545.89 382.542 1553.21 404.319 1553.21 432.249V827.757C1553.21 856.468 1545.89 878.636 1531.24 894.261C1516.79 909.886 1495.7 917.698 1467.96 917.698C1440.81 917.698 1420.01 909.983 1405.56 894.554C1391.3 878.929 1384.17 856.663 1384.17 827.757V432.249C1384.17 404.319 1391.4 382.542 1405.85 366.917ZM1495.21 834.495V426.39C1495.21 416.819 1492.86 409.007 1488.18 402.952C1483.68 396.897 1477.43 393.87 1469.43 393.87C1461.03 393.87 1454.39 396.897 1449.5 402.952C1444.62 409.007 1442.18 416.819 1442.18 426.39V834.495C1442.18 844.456 1444.62 852.464 1449.5 858.519C1454.39 864.378 1460.83 867.308 1468.84 867.308C1477.24 867.308 1483.68 864.476 1488.18 858.812C1492.86 852.952 1495.21 844.847 1495.21 834.495ZM1749.91 686.253L1745.52 504.905V347.288H1798.84V914.183H1742.59L1683.12 546.507H1680.19L1684.29 718.479V914.183H1630.97V347.288H1691.03L1746.11 686.253H1749.91Z" fill="#350054"/>
</g>
<g filter="url(#filter2_d_268_7)">
<path d="M495.816 856.274H430.484L371.012 589.38H366.324V856.274H309.195V289.38H366.91L366.324 540.161H371.012L428.727 289.38H489.078L421.988 562.134L495.816 856.274ZM669.957 856.274L660.582 717.114L600.523 716.528L590.27 856.274H531.383L586.754 289.38H675.523L730.016 856.274H669.957ZM604.039 666.724H656.773L640.66 438.208L632.75 348.56H628.062L620.152 438.208L604.039 666.724ZM962.75 856.274H905.621L879.84 634.204H845.27V856.274H788.141V289.38H875.152C900.348 289.38 919.977 296.509 934.039 310.767C948.297 324.829 955.426 345.044 955.426 371.411V547.778C955.426 574.927 947.223 596.313 930.816 611.938L962.75 856.274ZM845.855 584.985H866.07C886.773 584.985 897.223 572.974 897.418 548.95V373.755C897.418 350.903 886.969 339.575 866.07 339.771H845.855V584.985ZM1206.62 856.274H1149.49L1123.71 634.204H1089.14V856.274H1032.01V289.38H1119.02C1144.21 289.38 1163.84 296.509 1177.91 310.767C1192.16 324.829 1199.29 345.044 1199.29 371.411V547.778C1199.29 574.927 1191.09 596.313 1174.68 611.938L1206.62 856.274ZM1089.72 584.985H1109.94C1130.64 584.985 1141.09 572.974 1141.29 548.95V373.755C1141.29 350.903 1130.84 339.575 1109.94 339.771H1089.72V584.985ZM1275.88 289.38H1333V856.274H1275.88V289.38ZM1431.85 309.009C1446.5 293.384 1467.4 285.571 1494.55 285.571C1521.89 285.571 1542.79 293.384 1557.24 309.009C1571.89 324.634 1579.21 346.411 1579.21 374.341V769.849C1579.21 798.56 1571.89 820.728 1557.24 836.353C1542.79 851.978 1521.7 859.79 1493.96 859.79C1466.81 859.79 1446.01 852.075 1431.56 836.646C1417.3 821.021 1410.17 798.755 1410.17 769.849V374.341C1410.17 346.411 1417.4 324.634 1431.85 309.009ZM1521.21 776.587V368.481C1521.21 358.911 1518.86 351.099 1514.18 345.044C1509.68 338.989 1503.43 335.962 1495.43 335.962C1487.03 335.962 1480.39 338.989 1475.5 345.044C1470.62 351.099 1468.18 358.911 1468.18 368.481V776.587C1468.18 786.548 1470.62 794.556 1475.5 800.61C1480.39 806.47 1486.83 809.399 1494.84 809.399C1503.24 809.399 1509.68 806.567 1514.18 800.903C1518.86 795.044 1521.21 786.938 1521.21 776.587ZM1775.91 628.345L1771.52 446.997V289.38H1824.84V856.274H1768.59L1709.12 488.599H1706.19L1710.29 660.571V856.274H1656.97V289.38H1717.03L1772.11 628.345H1775.91Z" fill="#FFEDE5"/>
</g>
<defs>
<filter id="filter0_f_268_7" x="275.195" y="225.297" width="1615.64" height="674.219" filterUnits="userSpaceOnUse" color-interpolation-filters="sRGB">
<feFlood flood-opacity="0" result="BackgroundImageFix"/>
<feBlend mode="normal" in="SourceGraphic" in2="BackgroundImageFix" result="shape"/>
<feGaussianBlur stdDeviation="25" result="effect1_foregroundBlur_268_7"/>
</filter>
<filter id="filter1_f_268_7" x="228.195" y="288.479" width="1625.64" height="684.219" filterUnits="userSpaceOnUse" color-interpolation-filters="sRGB">
<feFlood flood-opacity="0" result="BackgroundImageFix"/>
<feBlend mode="normal" in="SourceGraphic" in2="BackgroundImageFix" result="shape"/>
<feGaussianBlur stdDeviation="27.5" result="effect1_foregroundBlur_268_7"/>
</filter>
<filter id="filter2_d_268_7" x="305.195" y="285.571" width="1523.64" height="582.219" filterUnits="userSpaceOnUse" color-interpolation-filters="sRGB">
<feFlood flood-opacity="0" result="BackgroundImageFix"/>
<feColorMatrix in="SourceAlpha" type="matrix" values="0 0 0 0 0 0 0 0 0 0 0 0 0 0 0 0 0 0 127 0" result="hardAlpha"/>
<feOffset dy="4"/>
<feGaussianBlur stdDeviation="2"/>
<feComposite in2="hardAlpha" operator="out"/>
<feColorMatrix type="matrix" values="0 0 0 0 0 0 0 0 0 0 0 0 0 0 0 0 0 0 0.25 0"/>
<feBlend mode="normal" in2="BackgroundImageFix" result="effect1_dropShadow_268_7"/>
<feBlend mode="normal" in="SourceGraphic" in2="effect1_dropShadow_268_7" result="shape"/>
</filter>
</defs>
</svg>
